HIERARCHY
ROOT hip
{
	OFFSET 0.000000 0.000000 0.000000 
	CHANNELS 6 Xposition Yposition Zposition Xrotation Zrotation Yrotation
	JOINT abdomen
	{
		OFFSET 0.000000 3.402643 0.000000 
		CHANNELS 3 Xrotation Zrotation Yrotation
		JOINT chest
		{
			OFFSET 0.000000 8.438565 -0.680529 
			CHANNELS 3 Xrotation Zrotation Yrotation
			JOINT neck
			{
				OFFSET 0.000000 10.207942 -0.272212 
				CHANNELS 3 Xrotation Zrotation Yrotation
				JOINT head
				{
					OFFSET 0.000000 3.130431 0.000000 
					CHANNELS 3 Xrotation Zrotation Yrotation
					End Site
					{
						OFFSET 0.000000 3.130435 0.000000 
					}
				}
			}
			JOINT lCollar
			{
				OFFSET 3.470700 6.669187 -0.816635 
				CHANNELS 3 Yrotation Zrotation Xrotation
				JOINT lShldr
				{
					OFFSET 3.198488 0.000000 0.000000 
					CHANNELS 3 Zrotation Yrotation Xrotation
					JOINT lForeArm
					{
						OFFSET 10.139888 0.000000 0.000000 
						CHANNELS 3 Yrotation Zrotation Xrotation
						JOINT lHand
						{
							OFFSET 8.370511 0.000000 0.000000 
							CHANNELS 3 Zrotation Yrotation Xrotation
							End Site
							{
								OFFSET 4.083176 0.000000 0.000000 
							}
						}
					}
				}
			}
			JOINT rCollar
			{
				OFFSET -3.470700 6.669187 -0.816635 
				CHANNELS 3 Yrotation Zrotation Xrotation
				JOINT rShldr
				{
					OFFSET -3.198488 0.000000 0.000000 
					CHANNELS 3 Zrotation Yrotation Xrotation
					JOINT rForeArm
					{
						OFFSET -10.139888 0.000000 0.000000 
						CHANNELS 3 Yrotation Zrotation Xrotation
						JOINT rHand
						{
							OFFSET -8.370511 0.000000 0.000000 
							CHANNELS 3 Zrotation Yrotation Xrotation
							End Site
							{
								OFFSET -4.083176 0.000000 0.000000 
							}
						}
					}
				}
			}
		}
	}
	JOINT lThigh
	{
		OFFSET 5.308129 -1.633274 1.361059 
		CHANNELS 3 Xrotation Zrotation Yrotation
		JOINT lShin
		{
			OFFSET -2.041588 -20.007561 0.000000 
			CHANNELS 3 Xrotation Zrotation Yrotation
			JOINT lFoot
			{
				OFFSET 0.000000 -19.190928 -1.224953 
				CHANNELS 3 Xrotation Yrotation Zrotation
				End Site
				{
					OFFSET 0.000000 -2.449906 4.627600 
				}
			}
		}
	}
	JOINT rThigh
	{
		OFFSET -5.308129 -1.633274 1.361059 
		CHANNELS 3 Xrotation Zrotation Yrotation
		JOINT rShin
		{
			OFFSET 2.041588 -20.007561 0.000000 
			CHANNELS 3 Xrotation Zrotation Yrotation
			JOINT rFoot
			{
				OFFSET 0.000000 -19.190928 -1.224953 
				CHANNELS 3 Xrotation Yrotation Zrotation
				End Site
				{
					OFFSET 0.000000 -2.449906 4.627600 
				}
			}
		}
	}
}
MOTION
Frames: 16
Frame Time: 0.011111
-3.432839 52.415024 -3.637178 3.379971 3.657837 -81.906761 30.108448 4.002403 9.190118 -23.888226 -4.300801 1.812811 -6.200644 -2.277536 -3.672798 12.005974 2.160470 -8.127203 -4.639579 -2.584670 0.232935 -37.137455 -3.218491 -24.931189 -121.505470 10.668249 50.138046 8.524705 12.647240 -44.241589 2.212703 6.201041 0.507338 56.020126 27.142649 33.560173 84.430458 -3.517668 25.865801 -8.534408 -12.637552 25.091654 -10.610541 3.699788 -4.660423 32.837383 -5.157387 -5.226216 -19.041395 -11.730068 -7.133681 -7.416456 -2.702165 -8.527690 28.296267 5.409473 4.594614 -23.437880 3.070787 3.757655 
-3.231269 52.324551 -3.566090 3.544447 3.739000 -81.749458 30.706953 4.488363 9.154020 -23.927319 -4.147910 1.720140 -6.241651 -2.448533 -3.594062 11.613408 1.817222 -8.044659 -4.639579 -2.584670 0.232935 -37.694584 -3.320684 -25.550856 -121.612282 10.653067 50.182014 8.524705 12.647240 -44.143932 2.212703 6.201041 0.507338 55.350063 27.803270 33.692379 84.543686 -3.407036 25.986212 -8.534408 -12.637552 25.599466 -11.655424 3.553537 -5.490122 34.398796 -5.059940 -5.424525 -19.873133 -12.724884 -7.678646 -8.412341 -2.702650 -8.170154 29.535421 5.355680 4.760548 -23.720623 2.742056 3.570658 
-2.996771 52.210686 -3.488847 3.650978 3.748023 -81.660545 31.532064 4.937720 9.044067 -24.093651 -4.001802 1.626869 -6.245250 -2.638592 -3.445617 11.199451 1.582557 -7.825992 -4.639579 -2.584670 0.232935 -38.195915 -3.224180 -26.359230 -121.794037 10.626273 50.257095 8.524705 12.647240 -43.919323 2.212703 6.201041 0.507338 54.659733 28.629341 33.932022 84.618828 -3.329546 26.072622 -8.534408 -12.637552 26.214703 -12.902966 3.289819 -6.105174 36.492981 -4.923678 -5.684801 -19.645781 -13.995873 -8.178143 -9.597116 -2.772345 -7.820428 31.186163 5.243542 4.976478 -24.114374 2.400964 3.423791 
-2.721652 52.066044 -3.394679 3.733291 3.676605 -81.750687 32.594902 5.227283 9.236794 -24.308979 -3.997336 1.612602 -6.148481 -2.707995 -3.421019 10.461206 1.468378 -7.771850 -4.639579 -2.584670 0.232935 -38.385250 -3.304345 -26.979881 -121.988274 10.590071 50.341663 8.524705 12.647240 -43.597061 2.212703 6.201041 0.507338 54.078838 29.549099 33.876080 84.658539 -3.286308 26.116928 -8.534408 -12.637552 26.976421 -14.103976 3.007080 -6.323738 38.515347 -4.767712 -5.929140 -18.357718 -14.979435 -8.340822 -10.794789 -2.859211 -7.381643 32.938351 5.151710 5.194582 -24.466087 2.128414 3.271109 
-2.418528 51.871552 -3.277123 4.035345 3.426280 -82.193687 33.976604 5.646044 9.944522 -24.504911 -4.182079 1.715922 -6.108223 -2.662184 -3.476062 9.696321 1.216181 -7.879912 -4.639579 -2.584670 0.232935 -38.328407 -3.437814 -27.562759 -122.213028 10.554329 50.438210 8.524705 12.647240 -43.069714 2.212703 6.201041 0.507338 53.551861 30.520592 33.603214 84.660202 -3.287109 26.116814 -8.534408 -12.637552 27.806499 -15.164943 3.046581 -6.030135 40.571735 -4.621416 -6.175992 -17.176697 -15.218766 -8.174434 -12.027148 -2.684453 -6.787835 35.027004 5.009530 5.465131 -24.837139 2.168147 3.264014 
-2.099093 51.600437 -3.161412 4.455385 3.044159 -82.898705 35.574162 6.016302 10.835577 -24.759604 -4.352663 1.853581 -6.185728 -2.600257 -3.490548 9.128173 0.933596 -7.898196 -4.639579 -2.584670 0.232935 -38.039345 -3.400457 -28.467953 -122.491737 10.506076 50.556000 8.524705 12.647240 -42.044323 2.212703 6.201041 0.507338 53.118793 31.516422 33.298092 84.624817 -3.321613 26.073650 -8.534408 -12.637552 28.714703 -16.157486 3.329230 -5.488099 42.538464 -4.448979 -6.391573 -16.801456 -14.379539 -7.790910 -13.356757 -2.333611 -6.066156 37.495445 4.853055 5.770559 -24.969576 2.374985 3.358264 
-1.784276 51.290543 -3.050933 4.809366 2.616819 -83.711288 37.217381 6.190826 11.656535 -24.994669 -4.474071 1.987892 -6.225937 -2.636297 -3.436546 8.486871 0.893862 -7.786481 -4.639579 -2.584670 0.232935 -37.386703 -3.272654 -29.667274 -122.726097 10.470131 50.652985 8.524705 12.647240 -40.647839 2.212703 6.201041 0.507338 52.869560 32.482311 32.963291 84.549782 -3.399819 25.996414 -8.534408 -12.637552 29.730324 -17.133665 3.641783 -4.837575 44.293545 -4.309266 -6.587632 -17.325350 -12.990657 -7.362555 -14.852740 -2.040980 -5.514867 40.337650 4.618861 6.106286 -24.912247 2.727077 3.530166 
-1.485461 50.945564 -2.940456 5.138142 2.216280 -84.763855 38.779575 6.177999 12.558514 -25.171045 -4.632086 2.170025 -6.158584 -2.656920 -3.396795 7.669596 0.888068 -7.680778 -4.639579 -2.584670 0.232935 -36.368431 -3.084607 -30.944574 -122.844009 10.449110 50.705349 8.524705 12.647240 -39.104870 2.212703 6.201041 0.507338 52.807964 33.359695 32.570156 84.437920 -3.511173 25.876503 -8.534408 -12.637552 30.775248 -17.914045 4.031965 -3.867070 45.860252 -4.165838 -6.762980 -17.457251 -13.763522 -7.667703 -16.555662 -1.815678 -5.114361 43.515640 4.381497 6.461236 -25.144419 3.354288 3.815032 
-1.192184 50.561817 -2.824437 5.179862 2.060810 -85.902443 39.989582 5.784007 13.326355 -25.386574 -4.794948 2.386349 -6.031047 -2.543190 -3.421926 6.826711 0.687264 -7.701411 -4.639579 -2.584670 0.232935 -34.954529 -2.845940 -32.228615 -122.896454 10.442466 50.716972 8.524705 12.647240 -37.220108 2.212703 6.201041 0.507338 52.975388 33.974525 31.991581 84.287590 -3.654214 25.713299 -8.534408 -12.637552 31.859234 -18.600386 4.120354 -2.679702 47.345181 -4.046263 -6.937839 -18.663143 -13.932464 -7.981769 -18.745029 -1.962190 -4.839159 46.924671 4.062263 6.850605 -24.817463 3.744990 4.009529 
-0.907833 50.177448 -2.705650 4.733912 2.173628 -86.827522 40.734596 4.970521 13.598634 -25.591980 -4.842960 2.554894 -5.825891 -2.462281 -3.435150 6.052386 0.489289 -7.688712 -4.639579 -2.584670 0.232935 -33.214497 -2.699757 -33.582592 -122.812172 10.454015 50.693031 8.524705 12.647240 -35.032608 2.212703 6.201041 0.507338 53.418980 34.348751 31.271574 84.024155 -3.895002 25.449141 -8.534408 -12.637552 32.816265 -19.389063 3.573259 -1.529031 48.821358 -3.890226 -7.084259 -20.066225 -13.721195 -8.148897 -21.380396 -2.840971 -4.648394 50.384544 3.757579 7.196694 -24.767109 4.914402 4.566229 
-0.626251 49.814930 -2.608403 4.215259 2.442133 -87.629486 41.176723 4.158611 13.570539 -25.787165 -4.767792 2.663877 -5.623409 -2.497123 -3.328545 5.461504 0.337125 -7.495078 -4.639579 -2.584670 0.232935 -31.520496 -2.599396 -34.967415 -122.576324 10.495625 50.588116 8.524705 12.647240 -33.011120 2.212703 6.201041 0.507338 54.147594 34.502544 30.633863 83.615791 -4.245067 25.080458 -8.534408 -12.637552 33.382668 -20.511745 2.996891 -0.528511 50.294434 -3.763541 -7.240172 -21.237118 -13.240499 -8.145039 -24.137722 -3.827899 -4.542381 53.700176 3.417987 7.557492 -24.990522 6.158583 5.158937 
-0.340668 49.464725 -2.510850 3.800400 2.788181 -88.087097 41.450119 3.655419 13.495831 -25.904339 -4.729847 2.710067 -5.450251 -2.652995 -3.229228 4.909775 0.115655 -7.334219 -4.639579 -2.584670 0.232935 -30.039780 -2.699611 -36.212032 -122.308563 10.540683 50.472061 8.524705 12.647240 -31.077528 2.212703 6.201041 0.507338 55.028179 34.165260 29.850204 83.160225 -4.604586 24.696320 -8.534408 -12.637552 33.587753 -21.841902 2.430986 0.054163 51.679012 -3.626683 -7.371500 -22.046471 -12.655051 -7.998456 -26.770704 -4.823205 -4.595885 56.746784 3.103894 7.844633 -25.769585 7.721019 5.977790 
-0.080321 49.151440 -2.405603 3.123171 2.678830 -88.318893 42.193844 3.032841 13.453520 -26.011580 -4.680791 2.773932 -5.255522 -2.907501 -3.250379 4.287230 -0.105366 -7.434077 -4.639579 -2.584670 0.232935 -28.767487 -3.321435 -37.134735 -122.009155 10.589264 50.352608 8.524705 12.647240 -29.241590 2.212703 6.201041 0.507338 55.849140 33.336067 28.524096 82.622688 -4.993655 24.273453 -8.534408 -12.637552 33.285015 -22.423513 1.551919 0.502964 52.817078 -3.500189 -7.494578 -22.568615 -12.337653 -7.935972 -28.616222 -6.170445 -4.695220 59.467499 2.811319 8.064273 -27.221422 9.411426 6.963370 
0.168334 48.908634 -2.336053 2.278370 2.489244 -88.475197 43.012844 2.145390 13.339521 -26.097878 -4.357529 2.841259 -5.070494 -3.332150 -3.306887 3.652769 -0.352967 -7.649767 -4.639579 -2.584670 0.232935 -27.900192 -4.238211 -37.770695 -121.687225 10.641848 50.213272 8.524705 12.647240 -27.864637 2.212703 6.201041 0.507338 56.486526 32.243401 27.012272 81.796173 -5.524071 23.660471 -8.534408 -12.637552 33.031109 -22.694971 0.653129 1.126357 53.621056 -3.414188 -7.578128 -22.591845 -12.490845 -8.012797 -30.135000 -7.646162 -4.741591 61.861774 2.519664 8.275046 -29.123175 9.118657 6.898678 
0.402831 48.716915 -2.269274 1.529528 2.225717 -88.472336 43.895016 1.462116 13.233541 -26.233328 -4.062532 2.894216 -4.865432 -3.638475 -3.377123 3.063750 -0.824243 -7.879251 -4.639579 -2.584670 0.232935 -27.364416 -5.141950 -38.082607 -121.440178 10.681440 50.106293 8.524705 12.647240 -27.024792 2.212703 6.201041 0.507338 57.091152 30.914433 25.514879 80.658943 -6.162103 22.892729 -8.534408 -12.637552 32.757668 -22.761133 -0.126547 1.701991 54.090710 -3.396545 -7.627757 -22.346205 -12.725796 -8.089565 -30.857807 -9.052574 -5.020326 64.009949 2.265763 8.448645 -29.878164 10.059677 7.529471 
0.635175 48.636288 -2.201880 1.200936 2.014408 -88.392120 44.727551 1.270590 13.370410 -26.399206 -4.002792 2.930598 -4.815922 -3.648450 -3.417658 2.837501 -1.597721 -7.972939 -4.639579 -2.584670 0.232935 -27.021933 -5.859373 -38.068703 -121.290253 10.702998 50.041637 8.524705 12.647240 -26.712294 2.212703 6.201041 0.507338 57.848362 29.446741 24.012955 79.125893 -6.883767 21.947647 -8.534408 -12.637552 32.796734 -22.787512 -0.420110 2.179659 54.189827 -3.373497 -7.615341 -22.020546 -12.916492 -8.123210 -31.086155 -9.967842 -5.626496 65.844276 2.051065 8.594033 -30.686518 8.948019 6.883450 
